<?xml version="1.0" encoding="UTF-8"?>
<svg xmlns="http://www.w3.org/2000/svg" version="1.1" xmlns:xlink="http://www.w3.org/1999/xlink" viewBox="0 0 96 96">
  <!-- Generator: Adobe Illustrator 30.4.0, SVG Export Plug-In . SVG Version: 2.1.4 Build 226)  -->
  <defs>
    <linearGradient id="linear-gradient" x1="-543.61" y1="359.25" x2="-543.61" y2="358.25" gradientTransform="translate(43537 20126.0014) scale(80 -56)" gradientUnits="userSpaceOnUse">
      <stop offset="0" stop-color="#f3f5f8"/>
      <stop offset="1" stop-color="#c7cdd6"/>
    </linearGradient>
    <linearGradient id="linear-gradient1" x1="-474.58" y1="328.19" x2="-474.58" y2="327.56" gradientTransform="translate(3440.5999 2431.1999) scale(7.2 -7.2)" gradientUnits="userSpaceOnUse">
      <stop offset="0" stop-color="#9ccef5"/>
      <stop offset="1" stop-color="#5ba3dc"/>
    </linearGradient>
    <linearGradient id="linear-gradient2" x1="-474.84" y1="328.4" x2="-474.84" y2="327.77" gradientTransform="translate(3456.5999 2437.1999) scale(7.2 -7.2)" gradientUnits="userSpaceOnUse">
      <stop offset="0" stop-color="#9ccef5"/>
      <stop offset="1" stop-color="#5ba3dc"/>
    </linearGradient>
    <linearGradient id="linear-gradient3" x1="-475.27" y1="328.37" x2="-475.27" y2="327.74" gradientTransform="translate(3472.5999 2431.1999) scale(7.2 -7.2)" gradientUnits="userSpaceOnUse">
      <stop offset="0" stop-color="#9ccef5"/>
      <stop offset="1" stop-color="#5ba3dc"/>
    </linearGradient>
    <linearGradient id="linear-gradient4" x1="-475.68" y1="328.5" x2="-475.68" y2="327.87" gradientTransform="translate(3488.5999 2437.1999) scale(7.2 -7.2)" gradientUnits="userSpaceOnUse">
      <stop offset="0" stop-color="#9ccef5"/>
      <stop offset="1" stop-color="#5ba3dc"/>
    </linearGradient>
    <linearGradient id="linear-gradient5" x1="-475.96" y1="327.44" x2="-475.96" y2="326.81" gradientTransform="translate(3456.5999 2437.1999) scale(7.2 -7.2)" xlink:href="#linear-gradient1"/>
    <linearGradient id="linear-gradient6" x1="-473.18" y1="327.67" x2="-473.18" y2="327.04" gradientTransform="translate(3456.5999 2437.1999) scale(7.2 -7.2)" xlink:href="#linear-gradient1"/>
    <linearGradient id="linear-gradient7" x1="-470.98" y1="327.12" x2="-470.98" y2="326.49" gradientTransform="translate(3456.5999 2437.1999) scale(7.2 -7.2)" xlink:href="#linear-gradient1"/>
    <linearGradient id="linear-gradient8" x1="-474.06" y1="326.58" x2="-474.06" y2="325.95" gradientTransform="translate(3456.5999 2437.1999) scale(7.2 -7.2)" xlink:href="#linear-gradient1"/>
  </defs>
  <g id="Layer_1" focusable="false">
    <path d="M30,64c-6.07,0-11.25-2.15-15.55-6.45-4.3-4.3-6.45-9.48-6.45-15.55,0-5.53,1.83-10.37,5.5-14.5,3.67-4.13,8.2-6.57,13.6-7.3,2.13-3.8,5.05-6.78,8.75-8.95,3.7-2.17,7.75-3.25,12.15-3.25,6,0,11.22,1.92,15.65,5.75,4.43,3.83,7.12,8.62,8.05,14.35,4.6.4,8.47,2.3,11.6,5.7,3.13,3.4,4.7,7.47,4.7,12.2,0,5-1.75,9.25-5.25,12.75-3.5,3.5-7.75,5.25-12.75,5.25H30Z" style="fill: url(#linear-gradient);"/>
    <circle cx="23.61" cy="70.47" r="2.27" style="fill: url(#linear-gradient1);"/>
    <circle cx="37.74" cy="75" r="2.27" style="fill: url(#linear-gradient2);"/>
    <circle cx="50.67" cy="69.2" r="2.27" style="fill: url(#linear-gradient3);"/>
    <circle cx="63.71" cy="74.25" r="2.27" style="fill: url(#linear-gradient4);"/>
    <circle cx="29.65" cy="81.91" r="2.27" style="fill: url(#linear-gradient5);"/>
    <circle cx="49.68" cy="80.27" r="2.27" style="fill: url(#linear-gradient6);"/>
    <circle cx="65.57" cy="84.17" r="2.27" style="fill: url(#linear-gradient7);"/>
    <circle cx="43.38" cy="88.12" r="2.27" style="fill: url(#linear-gradient8);"/>
  </g>
</svg>