<?xml version="1.0" encoding="UTF-8"?>
<svg xmlns="http://www.w3.org/2000/svg" version="1.1" xmlns:xlink="http://www.w3.org/1999/xlink" viewBox="0 0 96 96">
  <!-- Generator: Adobe Illustrator 30.4.0, SVG Export Plug-In . SVG Version: 2.1.4 Build 226)  -->
  <defs>
    <mask id="mask" x="0" y="0" width="96" height="96" maskUnits="userSpaceOnUse">
      <g id="dustMask">
        <path d="M0,0h96L0,96V0Z" style="fill: #fff;"/>
      </g>
    </mask>
    <linearGradient id="linear-gradient" x1="-544.24" y1="359.84" x2="-544.24" y2="358.84" gradientTransform="translate(47941 23046) scale(88 -64)" gradientUnits="userSpaceOnUse">
      <stop offset="0" stop-color="#f3f5f8"/>
      <stop offset="1" stop-color="#c7cdd6"/>
    </linearGradient>
    <linearGradient id="linear-gradient1" x1="-458.55" y1="318.7" x2="-458.55" y2="317.7" gradientTransform="translate(2406.1721 2439.5167) rotate(10.0869) scale(6 -6)" gradientUnits="userSpaceOnUse">
      <stop offset="0" stop-color="#d4a574"/>
      <stop offset="1" stop-color="#a0734a"/>
    </linearGradient>
    <linearGradient id="linear-gradient2" x1="-458.55" y1="318.7" x2="-458.55" y2="317.7" gradientTransform="translate(2414.0485 2440.9178) rotate(10.0869) scale(6 -6)" gradientUnits="userSpaceOnUse">
      <stop offset="0" stop-color="#d4a574"/>
      <stop offset="1" stop-color="#a0734a"/>
    </linearGradient>
    <linearGradient id="linear-gradient3" x1="-458.55" y1="318.7" x2="-458.55" y2="317.7" gradientTransform="translate(2416.1502 2429.1033) rotate(10.0869) scale(6 -6)" gradientUnits="userSpaceOnUse">
      <stop offset="0" stop-color="#d4a574"/>
      <stop offset="1" stop-color="#a0734a"/>
    </linearGradient>
    <linearGradient id="linear-gradient4" x1="-458.55" y1="318.7" x2="-458.55" y2="317.7" gradientTransform="translate(2424.0265 2430.5044) rotate(10.0869) scale(6 -6)" gradientUnits="userSpaceOnUse">
      <stop offset="0" stop-color="#d4a574"/>
      <stop offset="1" stop-color="#a0734a"/>
    </linearGradient>
    <linearGradient id="linear-gradient5" x1="-458.55" y1="318.7" x2="-458.55" y2="317.7" gradientTransform="translate(2426.1282 2418.6899) rotate(10.0869) scale(6 -6)" gradientUnits="userSpaceOnUse">
      <stop offset="0" stop-color="#d4a574"/>
      <stop offset="1" stop-color="#a0734a"/>
    </linearGradient>
    <linearGradient id="linear-gradient6" x1="-458.55" y1="318.7" x2="-458.55" y2="317.7" gradientTransform="translate(2434.0046 2420.0911) rotate(10.0869) scale(6 -6)" gradientUnits="userSpaceOnUse">
      <stop offset="0" stop-color="#d4a574"/>
      <stop offset="1" stop-color="#a0734a"/>
    </linearGradient>
    <linearGradient id="linear-gradient7" x1="-458.55" y1="318.7" x2="-458.55" y2="317.7" gradientTransform="translate(2436.1063 2408.2765) rotate(10.0869) scale(6 -6)" gradientUnits="userSpaceOnUse">
      <stop offset="0" stop-color="#d4a574"/>
      <stop offset="1" stop-color="#a0734a"/>
    </linearGradient>
    <linearGradient id="linear-gradient8" x1="-458.55" y1="318.7" x2="-458.55" y2="317.7" gradientTransform="translate(2443.9826 2409.6777) rotate(10.0869) scale(6 -6)" gradientUnits="userSpaceOnUse">
      <stop offset="0" stop-color="#d4a574"/>
      <stop offset="1" stop-color="#a0734a"/>
    </linearGradient>
    <linearGradient id="linear-gradient9" x1="-458.55" y1="318.7" x2="-458.55" y2="317.7" gradientTransform="translate(2446.0843 2397.8632) rotate(10.0869) scale(6 -6)" gradientUnits="userSpaceOnUse">
      <stop offset="0" stop-color="#d4a574"/>
      <stop offset="1" stop-color="#a0734a"/>
    </linearGradient>
    <linearGradient id="linear-gradient10" x1="-458.55" y1="318.7" x2="-458.55" y2="317.7" gradientTransform="translate(2453.9607 2399.2643) rotate(10.0869) scale(6 -6)" gradientUnits="userSpaceOnUse">
      <stop offset="0" stop-color="#d4a574"/>
      <stop offset="1" stop-color="#a0734a"/>
    </linearGradient>
  </defs>
  <g id="Layer_1" focusable="false">
    <g style="mask: url(#mask);">
      <path d="M26,80c-6.07,0-11.25-2.1-15.55-6.3-4.3-4.2-6.45-9.33-6.45-15.4,0-5.2,1.57-9.83,4.7-13.9,3.13-4.07,7.23-6.67,12.3-7.8,1.67-6.13,5-11.1,10-14.9s10.67-5.7,17-5.7c7.8,0,14.42,2.72,19.85,8.15,5.43,5.43,8.15,12.05,8.15,19.85,4.6.53,8.42,2.52,11.45,5.95,3.03,3.43,4.55,7.45,4.55,12.05,0,5-1.75,9.25-5.25,12.75-3.5,3.5-7.75,5.25-12.75,5.25H26Z" style="fill: url(#linear-gradient);"/>
    </g>
    <circle cx="31.8" cy="77.95" r="3" style="fill: url(#linear-gradient1);"/>
    <circle cx="39.68" cy="79.36" r="3" style="fill: url(#linear-gradient2);"/>
    <circle cx="41.78" cy="67.54" r="3" style="fill: url(#linear-gradient3);"/>
    <circle cx="49.65" cy="68.94" r="3" style="fill: url(#linear-gradient4);"/>
    <circle cx="51.76" cy="57.13" r="3" style="fill: url(#linear-gradient5);"/>
    <circle cx="59.63" cy="58.53" r="3" style="fill: url(#linear-gradient6);"/>
    <circle cx="61.73" cy="46.71" r="3" style="fill: url(#linear-gradient7);"/>
    <circle cx="69.61" cy="48.12" r="3" style="fill: url(#linear-gradient8);"/>
    <circle cx="71.71" cy="36.3" r="3" style="fill: url(#linear-gradient9);"/>
    <circle cx="79.59" cy="37.7" r="3" style="fill: url(#linear-gradient10);"/>
  </g>
</svg>