<?xml version="1.0" encoding="UTF-8"?>
<svg xmlns="http://www.w3.org/2000/svg" version="1.1" xmlns:xlink="http://www.w3.org/1999/xlink" viewBox="0 0 96 96">
  <!-- Generator: Adobe Illustrator 30.4.0, SVG Export Plug-In . SVG Version: 2.1.4 Build 226)  -->
  <defs>
    <mask id="mask" x="0" y="0" width="96" height="96" maskUnits="userSpaceOnUse">
      <g id="dustMask">
        <path d="M0,0h96L0,96V0Z" style="fill: #fff;"/>
      </g>
    </mask>
    <linearGradient id="linear-gradient" x1="-543.61" y1="360.67" x2="-543.61" y2="359.67" gradientTransform="translate(43537 28862) scale(80 -80)" gradientUnits="userSpaceOnUse">
      <stop offset="0" stop-color="#86c3db"/>
      <stop offset="1" stop-color="#72b9d5"/>
    </linearGradient>
    <linearGradient id="linear-gradient1" x1="-458.45" y1="318.92" x2="-458.45" y2="317.92" gradientTransform="translate(2331.2685 2511.0035) rotate(11.8578) scale(6 -6)" gradientUnits="userSpaceOnUse">
      <stop offset="0" stop-color="#d4a574"/>
      <stop offset="1" stop-color="#a0734a"/>
    </linearGradient>
    <linearGradient id="linear-gradient2" x1="-458.45" y1="318.92" x2="-458.45" y2="317.92" gradientTransform="translate(2339.0978 2512.6474) rotate(11.8578) scale(6 -6)" gradientUnits="userSpaceOnUse">
      <stop offset="0" stop-color="#d4a574"/>
      <stop offset="1" stop-color="#a0734a"/>
    </linearGradient>
    <linearGradient id="linear-gradient3" x1="-458.45" y1="318.92" x2="-458.45" y2="317.92" gradientTransform="translate(2341.5636 2500.9034) rotate(11.8578) scale(6 -6)" gradientUnits="userSpaceOnUse">
      <stop offset="0" stop-color="#d4a574"/>
      <stop offset="1" stop-color="#a0734a"/>
    </linearGradient>
    <linearGradient id="linear-gradient4" x1="-458.45" y1="318.92" x2="-458.45" y2="317.92" gradientTransform="translate(2349.3929 2502.5473) rotate(11.8578) scale(6 -6)" gradientUnits="userSpaceOnUse">
      <stop offset="0" stop-color="#d4a574"/>
      <stop offset="1" stop-color="#a0734a"/>
    </linearGradient>
    <linearGradient id="linear-gradient5" x1="-458.45" y1="318.92" x2="-458.45" y2="317.92" gradientTransform="translate(2351.8587 2490.8034) rotate(11.8578) scale(6 -6)" gradientUnits="userSpaceOnUse">
      <stop offset="0" stop-color="#d4a574"/>
      <stop offset="1" stop-color="#a0734a"/>
    </linearGradient>
    <linearGradient id="linear-gradient6" x1="-458.45" y1="318.92" x2="-458.45" y2="317.92" gradientTransform="translate(2359.688 2492.4472) rotate(11.8578) scale(6 -6)" gradientUnits="userSpaceOnUse">
      <stop offset="0" stop-color="#d4a574"/>
      <stop offset="1" stop-color="#a0734a"/>
    </linearGradient>
    <linearGradient id="linear-gradient7" x1="-458.45" y1="318.92" x2="-458.45" y2="317.92" gradientTransform="translate(2362.1538 2480.7033) rotate(11.8578) scale(6 -6)" gradientUnits="userSpaceOnUse">
      <stop offset="0" stop-color="#d4a574"/>
      <stop offset="1" stop-color="#a0734a"/>
    </linearGradient>
    <linearGradient id="linear-gradient8" x1="-458.45" y1="318.92" x2="-458.45" y2="317.92" gradientTransform="translate(2369.983 2482.3472) rotate(11.8578) scale(6 -6)" gradientUnits="userSpaceOnUse">
      <stop offset="0" stop-color="#d4a574"/>
      <stop offset="1" stop-color="#a0734a"/>
    </linearGradient>
    <linearGradient id="linear-gradient9" x1="-458.45" y1="318.92" x2="-458.45" y2="317.92" gradientTransform="translate(2372.4488 2470.6033) rotate(11.8578) scale(6 -6)" gradientUnits="userSpaceOnUse">
      <stop offset="0" stop-color="#d4a574"/>
      <stop offset="1" stop-color="#a0734a"/>
    </linearGradient>
    <linearGradient id="linear-gradient10" x1="-458.45" y1="318.92" x2="-458.45" y2="317.92" gradientTransform="translate(2380.2781 2472.2471) rotate(11.8578) scale(6 -6)" gradientUnits="userSpaceOnUse">
      <stop offset="0" stop-color="#d4a574"/>
      <stop offset="1" stop-color="#a0734a"/>
    </linearGradient>
  </defs>
  <g id="Layer_1" focusable="false">
    <g style="mask: url(#mask);">
      <path d="M48.4,88c-5.6,0-10.85-1.07-15.75-3.2-4.9-2.13-9.17-5.02-12.8-8.65-3.63-3.63-6.52-7.9-8.65-12.8-2.13-4.9-3.2-10.15-3.2-15.75,0-9.73,3.1-18.32,9.3-25.75,6.2-7.43,14.1-12.05,23.7-13.85-1.2,6.6-.83,13.05,1.1,19.35s5.27,11.82,10,16.55c4.73,4.73,10.25,8.06,16.55,10,6.3,1.94,12.75,2.3,19.35,1.1-1.73,9.6-6.33,17.5-13.8,23.7s-16.07,9.3-25.8,9.3" style="fill: url(#linear-gradient);"/>
    </g>
    <circle cx="31.82" cy="76.04" r="3" style="fill: url(#linear-gradient1);"/>
    <circle cx="39.65" cy="77.68" r="3" style="fill: url(#linear-gradient2);"/>
    <circle cx="42.11" cy="65.94" r="3" style="fill: url(#linear-gradient3);"/>
    <circle cx="49.94" cy="67.58" r="3" style="fill: url(#linear-gradient4);"/>
    <circle cx="52.41" cy="55.84" r="3" style="fill: url(#linear-gradient5);"/>
    <circle cx="60.24" cy="57.48" r="3" style="fill: url(#linear-gradient6);"/>
    <circle cx="62.7" cy="45.74" r="3" style="fill: url(#linear-gradient7);"/>
    <circle cx="70.53" cy="47.38" r="3" style="fill: url(#linear-gradient8);"/>
    <circle cx="73" cy="35.64" r="3" style="fill: url(#linear-gradient9);"/>
    <circle cx="80.83" cy="37.28" r="3" style="fill: url(#linear-gradient10);"/>
  </g>
</svg>