<svg xmlns="http://www.w3.org/2000/svg" width="96" height="96" viewBox="0 0 24 24" aria-hidden="true" focusable="false"><defs><linearGradient id="greyGrad" x1="0" y1="0" x2="0" y2="1"><stop offset="0%" stop-color="#F3F5F8"/><stop offset="100%" stop-color="#C7CDD6"/></linearGradient><linearGradient id="hazeGrad" x1="0" y1="0" x2="0" y2="1"><stop offset="0%" stop-color="#CDAA6D"/><stop offset="100%" stop-color="#A07840"/></linearGradient><clipPath id="hazeClip"><rect x="0" y="0" width="24" height="16.5"/></clipPath></defs><g clip-path="url(#hazeClip)"><path fill-rule="nonzero" fill="url(#greyGrad)" stroke="rgba(0,0,0,.12)" stroke-width="0.4" d="M6.5 20q-2.275 0-3.887-1.575T1 14.575q0-1.95 1.175-3.475T5.25 9.15q.625-2.3 2.5-3.725T12 4q2.925 0 4.963 2.038T19 11q1.725.2 2.863 1.488T23 15.5q0 1.875-1.312 3.188T18.5 20z"/></g><path fill="url(#hazeGrad)" d="M6 19q-.425 0-.712-.288T5 18t.288-.712T6 17h9q.425 0 .713.288T16 18t-.288.713T15 19z"/><path fill="url(#hazeGrad)" d="M18 19q-.425 0-.712-.288T17 18t.288-.712T18 17t.713.288T19 18t-.288.713T18 19"/><path fill="url(#hazeGrad)" d="M10 22q-.425 0-.712-.288T9 21t.288-.712T10 20h7q.425 0 .713.288T18 21t-.288.713T17 22z"/><path fill="url(#hazeGrad)" d="M7 22q-.425 0-.712-.288T6 21t.288-.712T7 20t.713.288T8 21t-.288.713T7 22"/></svg>
