<svg xmlns="http://www.w3.org/2000/svg" width="96" height="96" viewBox="0 0 24 24" aria-hidden="true" focusable="false"><defs><linearGradient id="moonGrad" x1="0" y1="0" x2="0" y2="1"><stop offset="0%" stop-color="#86C3DB"/><stop offset="100%" stop-color="#72B9D5"/></linearGradient><linearGradient id="greyGrad" x1="0" y1="0" x2="0" y2="1"><stop offset="0%" stop-color="#F3F5F8"/><stop offset="100%" stop-color="#C7CDD6"/></linearGradient><linearGradient id="hazeGrad" x1="0" y1="0" x2="0" y2="1"><stop offset="0%" stop-color="#CDAA6D"/><stop offset="100%" stop-color="#A07840"/></linearGradient><clipPath id="hazeClip"><rect x="0" y="0" width="24" height="16.5"/></clipPath></defs><g clip-path="url(#hazeClip)"><path fill-rule="nonzero" fill="url(#moonGrad)" d="M11.25 2q-.45 2.475.275 4.838t2.5 4.137t4.138 2.5T23 13.75q-.65 3.55-3.375 5.863T13.325 22q.8-.65 1.238-1.562T15 18.5q0-1.7-1.062-2.937t-2.713-1.488q-.8-1.425-2.187-2.25T6 11q-.8 0-1.562.2T3 11.8q.05-3.625 2.363-6.375T11.25 2"/><path fill-rule="nonzero" fill="url(#greyGrad)" stroke="rgba(0,0,0,.12)" stroke-width="0.4" d="M6 13q1.2 0 2.2.65t1.475 1.775l.25.575h.625q1.05 0 1.75.738T13 18.5q0 1.05-.725 1.775T10.5 21H6q-1.65 0-2.825-1.175T2 17q0-1.675 1.175-2.838T6 13"/></g><path fill="url(#hazeGrad)" d="M6 19q-.425 0-.712-.288T5 18t.288-.712T6 17h9q.425 0 .713.288T16 18t-.288.713T15 19z"/><path fill="url(#hazeGrad)" d="M18 19q-.425 0-.712-.288T17 18t.288-.712T18 17t.713.288T19 18t-.288.713T18 19"/><path fill="url(#hazeGrad)" d="M10 22q-.425 0-.712-.288T9 21t.288-.712T10 20h7q.425 0 .713.288T18 21t-.288.713T17 22z"/><path fill="url(#hazeGrad)" d="M7 22q-.425 0-.712-.288T6 21t.288-.712T7 20t.713.288T8 21t-.288.713T7 22"/></svg>
