<svg xmlns="http://www.w3.org/2000/svg" width="96" height="96" viewBox="0 0 24 24" aria-hidden="true" focusable="false"><defs><linearGradient id="goldGrad" x1="0" y1="0" x2="0" y2="1"><stop offset="0%" stop-color="#FFD24D"/><stop offset="100%" stop-color="#F5A623"/></linearGradient><linearGradient id="hazeGrad" x1="0" y1="0" x2="0" y2="1"><stop offset="0%" stop-color="#CDAA6D"/><stop offset="100%" stop-color="#A07840"/></linearGradient><clipPath id="hazeClip"><rect x="0" y="0" width="24" height="16.5"/></clipPath></defs><g clip-path="url(#hazeClip)"><path fill="url(#goldGrad)" d="M11 5V1h2v4zm6.65 2.75l-1.375-1.375l2.8-2.875l1.4 1.425zM19 13v-2h4v2zm-8 10v-4h2v4zM6.35 7.7L3.5 4.925l1.425-1.4L7.75 6.35zm12.7 12.8l-2.775-2.875l1.35-1.35l2.85 2.75zM1 13v-2h4v2zm3.925 7.5l-1.4-1.425l2.8-2.8l.725.675l.725.7zm2.825-4.25Q6 14.5 6 12t1.75-4.25T12 6t4.25 1.75T18 12t-1.75 4.25T12 18t-4.25-1.75"/></g><path fill="url(#hazeGrad)" d="M6 19q-.425 0-.712-.288T5 18t.288-.712T6 17h9q.425 0 .713.288T16 18t-.288.713T15 19z"/><path fill="url(#hazeGrad)" d="M18 19q-.425 0-.712-.288T17 18t.288-.712T18 17t.713.288T19 18t-.288.713T18 19"/><path fill="url(#hazeGrad)" d="M10 22q-.425 0-.712-.288T9 21t.288-.712T10 20h7q.425 0 .713.288T18 21t-.288.713T17 22z"/><path fill="url(#hazeGrad)" d="M7 22q-.425 0-.712-.288T6 21t.288-.712T7 20t.713.288T8 21t-.288.713T7 22"/></svg>
