<svg xmlns="http://www.w3.org/2000/svg" width="96" height="96" viewBox="0 0 24 24" aria-hidden="true" focusable="false"><defs><linearGradient id="moonGrad" x1="0" y1="0" x2="0" y2="1"><stop offset="0%" stop-color="#86C3DB"/><stop offset="100%" stop-color="#72B9D5"/></linearGradient><linearGradient id="hazeGrad" x1="0" y1="0" x2="0" y2="1"><stop offset="0%" stop-color="#CDAA6D"/><stop offset="100%" stop-color="#A07840"/></linearGradient><clipPath id="hazeClip"><rect x="0" y="0" width="24" height="16.5"/></clipPath></defs><g clip-path="url(#hazeClip)"><path fill="url(#moonGrad)" d="M12.1 22q-2.1 0-3.937-.8t-3.2-2.162t-2.163-3.2T2 11.9q0-3.65 2.325-6.437T10.25 2q-.45 2.475.275 4.838t2.5 4.137t4.138 2.5T22 13.75q-.65 3.6-3.45 5.925T12.1 22"/></g><path fill="url(#hazeGrad)" d="M6 19q-.425 0-.712-.288T5 18t.288-.712T6 17h9q.425 0 .713.288T16 18t-.288.713T15 19z"/><path fill="url(#hazeGrad)" d="M18 19q-.425 0-.712-.288T17 18t.288-.712T18 17t.713.288T19 18t-.288.713T18 19"/><path fill="url(#hazeGrad)" d="M10 22q-.425 0-.712-.288T9 21t.288-.712T10 20h7q.425 0 .713.288T18 21t-.288.713T17 22z"/><path fill="url(#hazeGrad)" d="M7 22q-.425 0-.712-.288T6 21t.288-.712T7 20t.713.288T8 21t-.288.713T7 22"/></svg>
