<svg xmlns="http://www.w3.org/2000/svg" width="96" height="96" viewBox="0 0 24 24" aria-hidden="true" focusable="false"><defs><linearGradient id="greyGrad" x1="0" y1="0" x2="0" y2="1"><stop offset="0%" stop-color="#F3F5F8"/><stop offset="100%" stop-color="#C7CDD6"/></linearGradient><linearGradient id="goldGrad" x1="0" y1="0" x2="0" y2="1"><stop offset="0%" stop-color="#FFD24D"/><stop offset="100%" stop-color="#F5A623"/></linearGradient><linearGradient id="hazeGrad" x1="0" y1="0" x2="0" y2="1"><stop offset="0%" stop-color="#CDAA6D"/><stop offset="100%" stop-color="#A07840"/></linearGradient><clipPath id="hazeClip"><rect x="0" y="0" width="24" height="16.5"/></clipPath></defs><g clip-path="url(#hazeClip)"><path fill-rule="nonzero" fill="url(#greyGrad)" stroke="rgba(0,0,0,.12)" stroke-width="0.4" d="M6 20q-1.65 0-2.825-1.175T2 16t1.175-2.825T6 12q1.2 0 2.213.65t1.462 1.775l.25.575h.6q1.05 0 1.763.725T13 17.5t-.725 1.775T10.5 20z"/><path fill-rule="nonzero" fill="url(#goldGrad)" d="M14.975 17.2q-.1-1.575-1.137-2.725t-2.613-1.425q-.775-1.35-2.087-2.137T6.25 10q.65-1.825 2.225-2.912T12 6q2.5 0 4.25 1.75T18 12q0 1.625-.8 3.013T14.975 17.2M11 5V1h2v4zm6.65 2.75l-1.4-1.4l2.8-2.85l1.425 1.425zM19 13v-2h4v2zm.05 7.5l-2.8-2.85l1.4-1.4l2.85 2.8zM6.35 7.75L3.525 4.925L4.95 3.5l2.8 2.85z"/></g><path fill="url(#hazeGrad)" d="M6 19q-.425 0-.712-.288T5 18t.288-.712T6 17h9q.425 0 .713.288T16 18t-.288.713T15 19z"/><path fill="url(#hazeGrad)" d="M18 19q-.425 0-.712-.288T17 18t.288-.712T18 17t.713.288T19 18t-.288.713T18 19"/><path fill="url(#hazeGrad)" d="M10 22q-.425 0-.712-.288T9 21t.288-.712T10 20h7q.425 0 .713.288T18 21t-.288.713T17 22z"/><path fill="url(#hazeGrad)" d="M7 22q-.425 0-.712-.288T6 21t.288-.712T7 20t.713.288T8 21t-.288.713T7 22"/></svg>
