<?xml version="1.0" encoding="UTF-8"?>
<svg xmlns="http://www.w3.org/2000/svg" version="1.1" xmlns:xlink="http://www.w3.org/1999/xlink" viewBox="0 0 96 96">
  <!-- Generator: Adobe Illustrator 30.4.0, SVG Export Plug-In . SVG Version: 2.1.4 Build 226)  -->
  <defs>
    <linearGradient id="linear-gradient" x1="59.91" y1="51.42" x2="59.91" y2="1.83" gradientUnits="userSpaceOnUse">
      <stop offset="0" stop-color="#86c3db"/>
      <stop offset="1" stop-color="#72b9d5"/>
    </linearGradient>
    <linearGradient id="linear-gradient1" x1="-544.26" y1="359.65" x2="-544.26" y2="358.65" gradientTransform="translate(47941 23046) scale(88 -64)" gradientUnits="userSpaceOnUse">
      <stop offset="0" stop-color="#f3f5f8"/>
      <stop offset="1" stop-color="#c7cdd6"/>
    </linearGradient>
  </defs>
  <g id="Layer_1" focusable="false">
    <path d="M0,10.19h96v96H0V10.19ZM26,90.19c-6.07,0-11.25-2.1-15.55-6.3-4.3-4.2-6.45-9.33-6.45-15.4,0-5.2,1.57-9.83,4.7-13.9,3.13-4.07,7.23-6.67,12.3-7.8,1.67-6.13,5-11.1,10-14.9s10.67-5.7,17-5.7c7.8,0,14.42,2.72,19.85,8.15,5.43,5.43,8.15,12.05,8.15,19.85,4.6.53,8.42,2.52,11.45,5.95,3.03,3.43,4.55,7.45,4.55,12.05,0,5-1.75,9.25-5.25,12.75-3.5,3.5-7.75,5.25-12.75,5.25H26Z" style="fill: none;"/>
    <path d="M46.45,24.35c8.86,0,16.49,3.14,22.68,9.32,5.01,5.01,7.99,10.97,8.95,17.75.04-.04.09-.07.13-.1,5.23-4.34,8.45-9.87,9.66-16.59-4.62.84-9.13.59-13.54-.77-4.41-1.36-8.27-3.69-11.59-7-3.31-3.31-5.65-7.17-7-11.58-1.35-4.41-1.61-8.93-.77-13.55-6.72,1.26-12.25,4.49-16.59,9.7-3.96,4.74-6.09,10.17-6.44,16.25,4.44-2.27,9.29-3.43,14.5-3.43Z" style="fill: url(#linear-gradient);"/>
    <path d="M24.45,92.35c-6.07,0-11.25-2.1-15.55-6.3-4.3-4.2-6.45-9.33-6.45-15.4,0-5.2,1.57-9.83,4.7-13.9,3.13-4.07,7.23-6.67,12.3-7.8,1.67-6.13,5-11.1,10-14.9s10.67-5.7,17-5.7c7.8,0,14.42,2.72,19.85,8.15,5.43,5.43,8.15,12.05,8.15,19.85,4.6.53,8.42,2.52,11.45,5.95,3.03,3.43,4.55,7.45,4.55,12.05,0,5-1.75,9.25-5.25,12.75-3.5,3.5-7.75,5.25-12.75,5.25H24.45Z" style="fill: url(#linear-gradient1);"/>
  </g>
</svg>