<?xml version="1.0" encoding="UTF-8"?>
<svg xmlns="http://www.w3.org/2000/svg" version="1.1" xmlns:xlink="http://www.w3.org/1999/xlink" viewBox="0 0 96 96">
  <!-- Generator: Adobe Illustrator 30.4.0, SVG Export Plug-In . SVG Version: 2.1.4 Build 226)  -->
  <defs>
    <linearGradient id="linear-gradient" x1="85.68" y1="36.3" x2="85.68" y2="30.7" gradientUnits="userSpaceOnUse">
      <stop offset="0" stop-color="#ffd24d"/>
      <stop offset="1" stop-color="#f5a623"/>
    </linearGradient>
    <linearGradient id="linear-gradient1" x1="80.15" y1="53.56" x2="80.15" y2="45.47" xlink:href="#linear-gradient"/>
    <linearGradient id="linear-gradient2" x1="78.33" y1="21.6" x2="78.33" y2="9.7" xlink:href="#linear-gradient"/>
    <linearGradient id="linear-gradient3" x1="42.63" y1="21.46" x2="42.63" y2="9.77" xlink:href="#linear-gradient"/>
    <linearGradient id="linear-gradient4" x1="60.48" y1="13.9" x2="60.48" y2="2.7" xlink:href="#linear-gradient"/>
    <linearGradient id="linear-gradient5" x1="62.86" y1="42.03" x2="62.86" y2="16.7" xlink:href="#linear-gradient"/>
    <linearGradient id="linear-gradient6" x1="-544.27" y1="359.69" x2="-544.27" y2="358.69" gradientTransform="translate(47941 23046) scale(88 -64)" gradientUnits="userSpaceOnUse">
      <stop offset="0" stop-color="#f3f5f8"/>
      <stop offset="1" stop-color="#c7cdd6"/>
    </linearGradient>
  </defs>
  <g id="Layer_1" focusable="false">
    <path d="M1.04,9.58h96v96H1.04V9.58ZM27.04,89.58c-6.07,0-11.25-2.1-15.55-6.3-4.3-4.2-6.45-9.33-6.45-15.4,0-5.2,1.57-9.83,4.7-13.9,3.13-4.07,7.23-6.67,12.3-7.8,1.67-6.13,5-11.1,10-14.9s10.67-5.7,17-5.7c7.8,0,14.42,2.72,19.85,8.15,5.43,5.43,8.15,12.05,8.15,19.85,4.6.53,8.42,2.52,11.45,5.95,3.03,3.43,4.55,7.45,4.55,12.05,0,5-1.75,9.25-5.25,12.75-3.5,3.5-7.75,5.25-12.75,5.25H27.04Z" style="fill: none;"/>
    <g>
      <rect x="80.08" y="30.7" width="11.2" height="5.6" style="fill: url(#linear-gradient);"/>
      <path d="M76.09,45.61c.37,1.51.65,3.05.8,4.64,2.54.68,4.86,1.79,6.95,3.31l.37-.39-7.98-7.7-.14.14Z" style="fill: url(#linear-gradient1);"/>
      <polygon points="84.21 13.69 80.29 9.7 72.45 17.75 76.3 21.6 84.21 13.69" style="fill: url(#linear-gradient2);"/>
      <polygon points="48.58 17.68 40.67 9.77 36.68 13.69 44.66 21.46 48.58 17.68" style="fill: url(#linear-gradient3);"/>
      <rect x="57.68" y="2.7" width="5.6" height="11.2" style="fill: url(#linear-gradient4);"/>
      <path d="M48.58,21.6s-.09.1-.13.15c7.42.71,13.89,3.78,19.27,9.16,3.31,3.31,5.73,7.03,7.28,11.13,1.51-2.52,2.28-5.36,2.28-8.53,0-4.67-1.63-8.63-4.9-11.9s-7.23-4.9-11.9-4.9-8.63,1.63-11.9,4.9Z" style="fill: url(#linear-gradient5);"/>
    </g>
    <path d="M23.04,89.58c-6.07,0-11.25-2.1-15.55-6.3-4.3-4.2-6.45-9.33-6.45-15.4,0-5.2,1.57-9.83,4.7-13.9,3.13-4.07,7.23-6.67,12.3-7.8,1.67-6.13,5-11.1,10-14.9s10.67-5.7,17-5.7c7.8,0,14.42,2.72,19.85,8.15,5.43,5.43,8.15,12.05,8.15,19.85,4.6.53,8.42,2.52,11.45,5.95,3.03,3.43,4.55,7.45,4.55,12.05,0,5-1.75,9.25-5.25,12.75-3.5,3.5-7.75,5.25-12.75,5.25H23.04Z" style="fill: url(#linear-gradient6);"/>
  </g>
</svg>