<?xml version="1.0" encoding="UTF-8"?>
<svg xmlns="http://www.w3.org/2000/svg" version="1.1" xmlns:xlink="http://www.w3.org/1999/xlink" viewBox="0 0 96 96">
  <!-- Generator: Adobe Illustrator 30.4.0, SVG Export Plug-In . SVG Version: 2.1.4 Build 226)  -->
  <defs>
    <linearGradient id="linear-gradient" x1="-542.77" y1="360.25" x2="-542.77" y2="359.25" gradientTransform="translate(39131.7989 25943.1993) scale(72 -72)" gradientUnits="userSpaceOnUse">
      <stop offset="0" stop-color="#86c3db"/>
      <stop offset="1" stop-color="#72b9d5"/>
    </linearGradient>
    <linearGradient id="linear-gradient1" x1="-536.45" y1="354.62" x2="-536.45" y2="353.62" gradientTransform="translate(21275.7994 10258.001) scale(39.6 -28.8)" gradientUnits="userSpaceOnUse">
      <stop offset="0" stop-color="#f3f5f8"/>
      <stop offset="1" stop-color="#c7cdd6"/>
    </linearGradient>
    <linearGradient id="linear-gradient2" x1="-477.83" y1="333.22" x2="-477.83" y2="332.57" gradientTransform="translate(3666.2504 3008.8011) scale(7.6208 -8.8)" gradientUnits="userSpaceOnUse">
      <stop offset="0" stop-color="#e8f4ff"/>
      <stop offset="1" stop-color="#b8d8f5"/>
    </linearGradient>
    <linearGradient id="linear-gradient3" x1="-478.47" y1="333.46" x2="-478.47" y2="332.81" gradientTransform="translate(3680.2483 3014.8011) scale(7.6208 -8.8)" gradientUnits="userSpaceOnUse">
      <stop offset="0" stop-color="#e8f4ff"/>
      <stop offset="1" stop-color="#b8d8f5"/>
    </linearGradient>
    <linearGradient id="linear-gradient4" x1="-479.11" y1="333.22" x2="-479.11" y2="332.57" gradientTransform="translate(3694.2483 3008.8011) scale(7.6208 -8.8)" gradientUnits="userSpaceOnUse">
      <stop offset="0" stop-color="#e8f4ff"/>
      <stop offset="1" stop-color="#b8d8f5"/>
    </linearGradient>
  </defs>
  <g id="Layer_1" focusable="false">
    <g>
      <path d="M45.81,5.21c-1.08,5.94-.75,11.75.99,17.42s4.74,10.64,9,14.89c4.26,4.26,9.23,7.26,14.9,9,5.67,1.74,11.48,2.07,17.41.99-1.56,8.52-5.61,15.56-12.15,21.11-6.54,5.55-14.1,8.42-22.68,8.59,1.92-1.56,3.41-3.43,4.46-5.62s1.58-4.51,1.57-6.98c0-4.08-1.27-7.6-3.82-10.57-2.55-2.97-5.8-4.75-9.77-5.36-1.92-3.42-4.54-6.12-7.87-8.1-3.33-1.98-6.97-2.97-10.94-2.97-1.92,0-3.79.24-5.62.72-1.83.48-3.55,1.2-5.18,2.16.12-8.7,2.96-16.35,8.51-22.95,5.55-6.6,12.62-10.71,21.19-12.33" style="fill: url(#linear-gradient);"/>
      <path d="M26.91,44.81c2.88,0,5.52.78,7.92,2.34,2.4,1.56,4.17,3.69,5.31,6.39l.9,2.07h2.25c2.52,0,4.62.89,6.3,2.66,1.68,1.77,2.52,3.89,2.52,6.34s-.87,4.65-2.61,6.39c-1.74,1.74-3.87,2.61-6.39,2.61h-16.2c-3.96,0-7.35-1.41-10.17-4.23s-4.23-6.21-4.23-10.17,1.41-7.43,4.23-10.22,6.21-4.19,10.17-4.18" style="fill: url(#linear-gradient1);"/>
    </g>
    <path d="M24.84,76.46v5.71M22.37,77.89l4.95,2.86M22.37,80.74l4.95-2.86" style="fill: none; stroke: url(#linear-gradient2); stroke-linecap: round; stroke-miterlimit: 16; stroke-width: 1.82px;"/>
    <path d="M33.93,80.35v5.71M31.45,81.78l4.95,2.86M31.45,84.64l4.95-2.86" style="fill: none; stroke: url(#linear-gradient3); stroke-linecap: round; stroke-miterlimit: 16; stroke-width: 1.82px;"/>
    <path d="M43.01,76.46v5.71M40.54,77.89l4.95,2.86M40.54,80.74l4.95-2.86" style="fill: none; stroke: url(#linear-gradient4); stroke-linecap: round; stroke-miterlimit: 16; stroke-width: 1.82px;"/>
  </g>
</svg>