<?xml version="1.0" encoding="UTF-8"?>
<svg xmlns="http://www.w3.org/2000/svg" version="1.1" xmlns:xlink="http://www.w3.org/1999/xlink" viewBox="0 0 96 96">
  <!-- Generator: Adobe Illustrator 30.4.0, SVG Export Plug-In . SVG Version: 2.1.4 Build 226)  -->
  <defs>
    <linearGradient id="linear-gradient" x1="-536.5" y1="354.5" x2="-536.5" y2="353.5" gradientTransform="translate(21275.8013 10254.3997) scale(39.6 -28.8)" gradientUnits="userSpaceOnUse">
      <stop offset="0" stop-color="#f3f5f8"/>
      <stop offset="1" stop-color="#c7cdd6"/>
    </linearGradient>
    <linearGradient id="linear-gradient1" x1="-542.59" y1="360.1" x2="-542.59" y2="359.1" gradientTransform="translate(38092.2997 25284.3993) scale(70.11 -70.2)" gradientUnits="userSpaceOnUse">
      <stop offset="0" stop-color="#ffd24d"/>
      <stop offset="1" stop-color="#f5a623"/>
    </linearGradient>
    <linearGradient id="linear-gradient2" x1="-411.98" y1="357.73" x2="-411.98" y2="357.16" gradientTransform="translate(155.1306 5534.7112) rotate(18) scale(4.4 -14.4)" gradientUnits="userSpaceOnUse">
      <stop offset="0" stop-color="#9ccef5"/>
      <stop offset="1" stop-color="#5ba3dc"/>
    </linearGradient>
    <linearGradient id="linear-gradient3" x1="-478.93" y1="333.25" x2="-478.93" y2="332.67" gradientTransform="translate(3678.2494 3012.8011) scale(7.6208 -8.8)" gradientUnits="userSpaceOnUse">
      <stop offset="0" stop-color="#e8f4ff"/>
      <stop offset="1" stop-color="#b8d8f5"/>
    </linearGradient>
    <linearGradient id="linear-gradient4" x1="-414.19" y1="357.51" x2="-414.19" y2="356.94" gradientTransform="translate(179.1306 5534.7112) rotate(18) scale(4.4 -14.4)" gradientUnits="userSpaceOnUse">
      <stop offset="0" stop-color="#9ccef5"/>
      <stop offset="1" stop-color="#5ba3dc"/>
    </linearGradient>
    <linearGradient id="linear-gradient5" x1="-479.99" y1="333.25" x2="-479.99" y2="332.67" gradientTransform="translate(3700.2483 3012.8011) scale(7.6208 -8.8)" gradientUnits="userSpaceOnUse">
      <stop offset="0" stop-color="#e8f4ff"/>
      <stop offset="1" stop-color="#b8d8f5"/>
    </linearGradient>
  </defs>
  <g id="Layer_1" focusable="false">
    <g>
      <path d="M24.9,73.51c-3.96,0-7.35-1.41-10.17-4.23s-4.23-6.21-4.23-10.17,1.41-7.35,4.23-10.17c2.82-2.82,6.21-4.23,10.17-4.23,2.88,0,5.54.78,7.97,2.34,2.43,1.56,4.19,3.69,5.26,6.39l.9,2.07h2.16c2.52,0,4.64.87,6.35,2.61,1.71,1.74,2.57,3.87,2.56,6.39s-.87,4.65-2.61,6.39c-1.74,1.74-3.87,2.61-6.39,2.61h-16.2Z" style="fill: url(#linear-gradient);"/>
      <path d="M57.21,63.43c-.24-3.78-1.6-7.05-4.09-9.81-2.49-2.76-5.62-4.47-9.41-5.13-1.86-3.24-4.36-5.8-7.51-7.69s-6.61-2.98-10.4-3.29c1.56-4.38,4.23-7.87,8.01-10.48,3.78-2.61,8.01-3.91,12.69-3.92,6,0,11.1,2.1,15.3,6.3,4.2,4.2,6.3,9.3,6.3,15.3,0,3.9-.96,7.52-2.88,10.85s-4.59,5.96-8.01,7.87M42.9,19.51V5.11h7.2v14.4h-7.2ZM66.84,29.41l-5.04-5.04,10.08-10.26,5.13,5.13-10.17,10.17ZM71.7,48.31v-7.2h14.4v7.2h-14.4ZM71.88,75.31l-10.08-10.26,5.04-5.04,10.26,10.08-5.22,5.22ZM26.16,29.41l-10.17-10.17,5.13-5.13,10.08,10.26-5.04,5.04Z" style="fill: url(#linear-gradient1);"/>
    </g>
    <path d="M22.98,75.37h0c.66.22,1.03.93.81,1.59l-1.77,5.46c-.22.66-.93,1.03-1.59.81h0c-.66-.22-1.03-.93-.81-1.59l1.77-5.46c.22-.66.93-1.03,1.59-.81Z" style="fill: url(#linear-gradient2);"/>
    <path d="M28.4,80.22v5.05M26.22,81.48l4.37,2.52M26.22,84.01l4.37-2.52" style="fill: none; stroke: url(#linear-gradient3); stroke-linecap: round; stroke-miterlimit: 16; stroke-width: 1.61px;"/>
    <path d="M36.75,75.37h0c.66.22,1.03.93.81,1.59l-1.77,5.46c-.22.66-.93,1.03-1.59.81h0c-.66-.22-1.03-.93-.81-1.59l1.77-5.46c.22-.66.93-1.03,1.59-.81Z" style="fill: url(#linear-gradient4);"/>
    <path d="M42.36,80.22v5.05M40.17,81.48l4.37,2.52M40.17,84.01l4.37-2.52" style="fill: none; stroke: url(#linear-gradient5); stroke-linecap: round; stroke-miterlimit: 16; stroke-width: 1.61px;"/>
  </g>
</svg>