<?xml version="1.0" encoding="UTF-8"?>
<svg xmlns="http://www.w3.org/2000/svg" version="1.1" xmlns:xlink="http://www.w3.org/1999/xlink" viewBox="0 0 96 96">
  <!-- Generator: Adobe Illustrator 30.4.0, SVG Export Plug-In . SVG Version: 2.1.4 Build 226)  -->
  <defs>
    <linearGradient id="linear-gradient" x1="-543.61" y1="359.25" x2="-543.61" y2="358.25" gradientTransform="translate(43537 20122.0014) scale(80 -56)" gradientUnits="userSpaceOnUse">
      <stop offset="0" stop-color="#f3f5f8"/>
      <stop offset="1" stop-color="#c7cdd6"/>
    </linearGradient>
    <linearGradient id="linear-gradient1" x1="-480.11" y1="335.39" x2="-480.11" y2="334.39" gradientTransform="translate(3686.2483 3014.8011) scale(7.6208 -8.8)" gradientUnits="userSpaceOnUse">
      <stop offset="0" stop-color="#e8f4ff"/>
      <stop offset="1" stop-color="#b8d8f5"/>
    </linearGradient>
    <linearGradient id="linear-gradient2" x1="-477.49" y1="334.89" x2="-477.49" y2="333.89" xlink:href="#linear-gradient1"/>
    <linearGradient id="linear-gradient3" x1="-475.03" y1="335.54" x2="-475.03" y2="334.54" xlink:href="#linear-gradient1"/>
    <linearGradient id="linear-gradient4" x1="-479.11" y1="333.31" x2="-479.11" y2="332.31" xlink:href="#linear-gradient1"/>
    <linearGradient id="linear-gradient5" x1="-475.83" y1="333.56" x2="-475.83" y2="332.56" xlink:href="#linear-gradient1"/>
  </defs>
  <g id="Layer_1" focusable="false">
    <path d="M30,60c-6.07,0-11.25-2.15-15.55-6.45-4.3-4.3-6.45-9.48-6.45-15.55,0-5.53,1.83-10.37,5.5-14.5,3.67-4.13,8.2-6.57,13.6-7.3,2.13-3.8,5.05-6.78,8.75-8.95,3.7-2.17,7.75-3.25,12.15-3.25,6,0,11.22,1.92,15.65,5.75,4.43,3.83,7.12,8.62,8.05,14.35,4.6.4,8.47,2.3,11.6,5.7,3.13,3.4,4.7,7.47,4.7,12.2,0,5-1.75,9.25-5.25,12.75-3.5,3.5-7.75,5.25-12.75,5.25H30Z" style="fill: url(#linear-gradient);"/>
    <path d="M27.43,63.36v8.8M23.61,65.56l7.62,4.4M23.61,69.96l7.62-4.4" style="fill: none; stroke: url(#linear-gradient1); stroke-linecap: round; stroke-miterlimit: 16; stroke-width: 2.8px;"/>
    <path d="M47.42,67.76v8.8M43.61,69.96l7.62,4.4M43.61,74.36l7.62-4.4" style="fill: none; stroke: url(#linear-gradient2); stroke-linecap: round; stroke-miterlimit: 16; stroke-width: 2.8px;"/>
    <path d="M66.15,62.08v8.8M62.34,64.28l7.62,4.4M62.34,68.68l7.62-4.4" style="fill: none; stroke: url(#linear-gradient3); stroke-linecap: round; stroke-miterlimit: 16; stroke-width: 2.8px;"/>
    <path d="M35.05,81.64v8.8M31.24,83.84l7.62,4.4M31.24,88.24l7.62-4.4" style="fill: none; stroke: url(#linear-gradient4); stroke-linecap: round; stroke-miterlimit: 16; stroke-width: 2.8px;"/>
    <path d="M60.02,79.44v8.8M56.21,81.64l7.62,4.4M56.21,86.04l7.62-4.4" style="fill: none; stroke: url(#linear-gradient5); stroke-linecap: round; stroke-miterlimit: 16; stroke-width: 2.8px;"/>
  </g>
</svg>